<svg width="235" height="107" viewBox="0 0 235 107" fill="none" xmlns="http://www.w3.org/2000/svg">
<g clip-path="url(#clip0_71_290)">
<path d="M0 85C0 83.3431 1.34315 82 3 82H126C127.657 82 129 83.3431 129 85V104C129 105.657 127.657 107 126 107H3C1.34315 107 0 105.657 0 104V85Z" fill="currentColor"/>
<path d="M0 44C0 42.3431 1.34315 41 3 41H93C94.6569 41 96 42.3431 96 44V63C96 64.6569 94.6569 66 93 66H3C1.34315 66 0 64.6569 0 63V44Z" fill="currentColor"/>
<path d="M86 101.5C84.3431 101.5 83 100.157 83 98.5V8.5C83 6.84315 84.3431 5.5 86 5.5H105C106.657 5.5 108 6.84315 108 8.5V98.5C108 100.157 106.657 101.5 105 101.5H86Z" fill="currentColor"/>
<path d="M176 63C176 64.6569 174.657 66 173 66H103C101.343 66 100 64.6569 100 63V44C100 42.3431 101.343 41 103 41H173C174.657 41 176 42.3431 176 44V63Z" fill="currentColor"/>
<path d="M0 3C0 1.34315 1.34315 0 3 0H126C127.657 0 129 1.34315 129 3V22C129 23.6569 127.657 25 126 25H3C1.34315 25 0 23.6569 0 22V3Z" fill="currentColor"/>
<path d="M165 101.5C163.343 101.5 162 100.157 162 98.5V8.5C162 6.84315 163.343 5.5 165 5.5H184C185.657 5.5 187 6.84315 187 8.5V98.5C187 100.157 185.657 101.5 184 101.5H165Z" fill="currentColor"/>
<path d="M139 3C139 1.34315 140.343 0 142 0H232C233.657 0 235 1.34315 235 3V22C235 23.6569 233.657 25 232 25H142C140.343 25 139 23.6569 139 22V3Z" fill="currentColor"/>
<path d="M139 85C139 83.3431 140.343 82 142 82H232C233.657 82 235 83.3431 235 85V104C235 105.657 233.657 107 232 107H142C140.343 107 139 105.657 139 104V85Z" fill="currentColor"/>
<path d="M213 107C211.343 107 210 105.657 210 104V8C210 6.34315 211.343 5 213 5H232C233.657 5 235 6.34315 235 8V104C235 105.657 233.657 107 232 107H213Z" fill="currentColor"/>
</g>
<defs>
<clipPath id="clip0_71_290">
<rect width="235" height="107" fill="white"/>
</clipPath>
</defs>
</svg>
