<svg width="40" height="40" viewBox="0 0 40 40" fill="none" xmlns="http://www.w3.org/2000/svg">
<path fill-rule="evenodd" clip-rule="evenodd" d="M26.6673 15.0002C26.6673 16.7683 25.9649 18.464 24.7147 19.7142C23.4645 20.9645 21.7688 21.6668 20.0007 21.6668C18.2325 21.6668 16.5368 20.9645 15.2866 19.7142C14.0364 18.464 13.334 16.7683 13.334 15.0002C13.334 13.2321 14.0364 11.5364 15.2866 10.2861C16.5368 9.03587 18.2325 8.3335 20.0007 8.3335C21.7688 8.3335 23.4645 9.03587 24.7147 10.2861C25.9649 11.5364 26.6673 13.2321 26.6673 15.0002ZM23.334 15.0002C23.334 15.8842 22.9828 16.7321 22.3577 17.3572C21.7326 17.9823 20.8847 18.3335 20.0007 18.3335C19.1166 18.3335 18.2688 17.9823 17.6436 17.3572C17.0185 16.7321 16.6673 15.8842 16.6673 15.0002C16.6673 14.1161 17.0185 13.2683 17.6436 12.6431C18.2688 12.018 19.1166 11.6668 20.0007 11.6668C20.8847 11.6668 21.7326 12.018 22.3577 12.6431C22.9828 13.2683 23.334 14.1161 23.334 15.0002Z" fill="#D9D9D9"/>
<path fill-rule="evenodd" clip-rule="evenodd" d="M20.0003 1.66675C9.87533 1.66675 1.66699 9.87508 1.66699 20.0001C1.66699 30.1251 9.87533 38.3334 20.0003 38.3334C30.1253 38.3334 38.3337 30.1251 38.3337 20.0001C38.3337 9.87508 30.1253 1.66675 20.0003 1.66675ZM5.00033 20.0001C5.00033 23.4834 6.18866 26.6901 8.18033 29.2367C9.5794 27.4003 11.3839 25.912 13.4531 24.888C15.5222 23.8639 17.8 23.3319 20.1087 23.3334C22.3876 23.3308 24.6371 23.8486 26.6855 24.8474C28.734 25.8462 30.5273 27.2996 31.9287 29.0967C33.3727 27.2028 34.3451 24.9921 34.7652 22.6477C35.1852 20.3034 35.041 17.8926 34.3445 15.6151C33.6479 13.3375 32.419 11.2585 30.7595 9.55014C29.0999 7.84179 27.0574 6.55318 24.801 5.79093C22.5445 5.02868 20.139 4.8147 17.7834 5.1667C15.4279 5.51871 13.19 6.42657 11.2549 7.81517C9.3199 9.20377 7.74334 11.0332 6.65571 13.1521C5.56807 15.271 5.00063 17.6184 5.00033 20.0001ZM20.0003 35.0001C16.5568 35.0057 13.2172 33.821 10.547 31.6468C11.6217 30.1078 13.0523 28.8513 14.7171 27.9842C16.3819 27.1171 18.2316 26.6651 20.1087 26.6667C21.9623 26.6651 23.7895 27.1058 25.4386 27.9523C27.0877 28.7987 28.511 30.0264 29.5903 31.5334C26.8994 33.7784 23.5047 35.0056 20.0003 35.0001Z" fill="#D9D9D9"/>
</svg>
