<svg width="40" height="40" viewBox="0 0 40 40" fill="none" xmlns="http://www.w3.org/2000/svg">
<path fill-rule="evenodd" clip-rule="evenodd" d="M23.7984 3.58659C23.1817 3.33325 22.3984 3.33325 20.8334 3.33325C19.2684 3.33325 18.4867 3.33325 17.8684 3.58659C17.4615 3.75283 17.0916 3.99789 16.7798 4.30766C16.468 4.61744 16.2206 4.98581 16.0517 5.39159C15.895 5.76325 15.835 6.19825 15.81 6.82992C15.7981 7.28742 15.6702 7.73439 15.4381 8.12884C15.206 8.5233 14.8775 8.85229 14.4834 9.08492C14.0813 9.30842 13.6293 9.42683 13.1692 9.42916C12.7092 9.43149 12.256 9.31767 11.8517 9.09825C11.2884 8.80159 10.88 8.63825 10.4767 8.58492C9.59434 8.46979 8.70215 8.70691 7.99337 9.24492C7.46337 9.64825 7.0717 10.3216 6.29004 11.6666C5.5067 13.0116 5.1167 13.6833 5.02837 14.3416C4.9117 15.2183 5.1517 16.1049 5.69504 16.8066C5.9417 17.1266 6.29004 17.3949 6.82837 17.7316C7.62337 18.2266 8.13337 19.0699 8.13337 19.9999C8.13337 20.9299 7.62337 21.7733 6.83004 22.2666C6.29004 22.6049 5.9417 22.8733 5.69337 23.1933C5.42598 23.5403 5.22962 23.9366 5.11551 24.3596C5.00141 24.7825 4.9718 25.2238 5.02837 25.6583C5.1167 26.3149 5.5067 26.9883 6.29004 28.3333C7.07337 29.6783 7.46337 30.3499 7.99337 30.7549C8.70004 31.2932 9.59337 31.5299 10.4767 31.4149C10.88 31.3616 11.2884 31.1983 11.8517 30.9016C12.2562 30.6819 12.7097 30.5679 13.1701 30.5702C13.6304 30.5726 14.0827 30.6911 14.485 30.9149C15.295 31.3816 15.775 32.2399 15.81 33.1699C15.835 33.8033 15.895 34.2366 16.0517 34.6083C16.3917 35.4249 17.045 36.0749 17.8684 36.4133C18.485 36.6666 19.2684 36.6666 20.8334 36.6666C22.3984 36.6666 23.1817 36.6666 23.7984 36.4133C24.2052 36.247 24.5752 36.0019 24.887 35.6922C25.1987 35.3824 25.4462 35.014 25.615 34.6083C25.7717 34.2366 25.8317 33.8033 25.8567 33.1699C25.89 32.2399 26.3717 31.3799 27.1834 30.9149C27.5855 30.6914 28.0375 30.573 28.4975 30.5707C28.9575 30.5683 29.4107 30.6822 29.815 30.9016C30.3784 31.1983 30.7867 31.3616 31.19 31.4149C32.0734 31.5316 32.9667 31.2932 33.6734 30.7549C34.2034 30.3516 34.595 29.6783 35.3767 28.3333C36.16 26.9883 36.55 26.3166 36.6384 25.6583C36.6947 25.2237 36.6648 24.7824 36.5504 24.3594C36.436 23.9364 36.2394 23.5401 35.9717 23.1933C35.725 22.8733 35.3767 22.6049 34.8384 22.2683C34.0434 21.7733 33.5334 20.9299 33.5334 19.9999C33.5334 19.0699 34.0434 18.2266 34.8367 17.7333C35.3767 17.3949 35.725 17.1266 35.9734 16.8066C36.2408 16.4596 36.4371 16.0632 36.5512 15.6403C36.6653 15.2173 36.6949 14.776 36.6384 14.3416C36.55 13.6849 36.16 13.0116 35.3767 11.6666C34.5934 10.3216 34.2034 9.64992 33.6734 9.24492C32.9646 8.70691 32.0724 8.46979 31.19 8.58492C30.7867 8.63825 30.3784 8.80159 29.815 9.09825C29.4105 9.31797 28.957 9.43195 28.4967 9.42962C28.0363 9.42728 27.584 9.30872 27.1817 9.08492C26.7879 8.85209 26.4597 8.52301 26.2279 8.12856C25.9962 7.73412 25.8684 7.28726 25.8567 6.82992C25.8317 6.19659 25.7717 5.76325 25.615 5.39159C25.4462 4.98581 25.1987 4.61744 24.887 4.30766C24.5752 3.99789 24.2052 3.75283 23.7984 3.58659ZM20.8334 24.9999C23.6167 24.9999 25.8717 22.7616 25.8717 19.9999C25.8717 17.2383 23.615 14.9999 20.8334 14.9999C18.0517 14.9999 15.795 17.2383 15.795 19.9999C15.795 22.7616 18.0517 24.9999 20.8334 24.9999Z" fill="#D8D8D8"/>
</svg>
